<svg width="14" height="14" viewBox="0 0 14 14" fill="none" xmlns="http://www.w3.org/2000/svg">
<path d="M13.45 4.52955C13.0986 3.69784 12.5892 2.94221 11.95 2.30455C11.3123 1.66534 10.5567 1.15593 9.725 0.804547C8.86094 0.438922 7.94531 0.254547 7 0.254547C6.05469 0.254547 5.13906 0.438922 4.275 0.804547C3.4433 1.15593 2.68767 1.66534 2.05 2.30455C1.41079 2.94221 0.901382 3.69784 0.55 4.52955C0.184375 5.39361 0 6.30923 0 7.25455C0 9.32798 0.910937 11.2811 2.49844 12.6155L2.525 12.6374C2.61563 12.7124 2.72969 12.7545 2.84687 12.7545H11.1547C11.2719 12.7545 11.3859 12.7124 11.4766 12.6374L11.5031 12.6155C13.0891 11.2811 14 9.32798 14 7.25455C14 6.30923 13.8141 5.39361 13.45 4.52955ZM10.8969 11.567H3.10313C2.49937 11.0227 2.01682 10.3574 1.68681 9.61447C1.35679 8.87152 1.18667 8.06749 1.1875 7.25455C1.1875 5.70142 1.79219 4.24205 2.89062 3.14517C3.98906 2.04673 5.44844 1.44205 7 1.44205C8.55313 1.44205 10.0125 2.04673 11.1094 3.14517C12.2078 4.24361 12.8125 5.70298 12.8125 7.25455C12.8125 8.90455 12.1172 10.4655 10.8969 11.567ZM8.74219 5.09048C8.71869 5.06722 8.68697 5.05417 8.65391 5.05417C8.62084 5.05417 8.58912 5.06722 8.56563 5.09048L7.24531 6.4108C6.95312 6.33267 6.62969 6.40767 6.4 6.63736C6.31865 6.71856 6.2541 6.81501 6.21007 6.92118C6.16603 7.02735 6.14336 7.14117 6.14336 7.25611C6.14336 7.37105 6.16603 7.48487 6.21007 7.59104C6.2541 7.69721 6.31865 7.79366 6.4 7.87486C6.4812 7.95621 6.57765 8.02076 6.68382 8.06479C6.78999 8.10883 6.90381 8.1315 7.01875 8.1315C7.13369 8.1315 7.24751 8.10883 7.35368 8.06479C7.45985 8.02076 7.5563 7.95621 7.6375 7.87486C7.74632 7.76637 7.82458 7.63107 7.86436 7.48264C7.90414 7.33422 7.90404 7.17792 7.86406 7.02955L9.18437 5.70923C9.23281 5.6608 9.23281 5.58111 9.18437 5.53267L8.74219 5.09048ZM6.65625 3.50455H7.34375C7.4125 3.50455 7.46875 3.4483 7.46875 3.37955V2.12955C7.46875 2.0608 7.4125 2.00455 7.34375 2.00455H6.65625C6.5875 2.00455 6.53125 2.0608 6.53125 2.12955V3.37955C6.53125 3.4483 6.5875 3.50455 6.65625 3.50455ZM10.7188 6.9108V7.5983C10.7188 7.66705 10.775 7.7233 10.8438 7.7233H12.0938C12.1625 7.7233 12.2188 7.66705 12.2188 7.5983V6.9108C12.2188 6.84205 12.1625 6.7858 12.0938 6.7858H10.8438C10.775 6.7858 10.7188 6.84205 10.7188 6.9108ZM10.9172 3.82955L10.4312 3.34361C10.4078 3.32035 10.376 3.3073 10.343 3.3073C10.3099 3.3073 10.2782 3.32035 10.2547 3.34361L9.37031 4.22798C9.34705 4.25148 9.334 4.2832 9.334 4.31627C9.334 4.34933 9.34705 4.38105 9.37031 4.40455L9.85625 4.89048C9.90469 4.93892 9.98438 4.93892 10.0328 4.89048L10.9172 4.00611C10.9656 3.95767 10.9656 3.87798 10.9172 3.82955ZM3.75156 3.34361C3.72807 3.32035 3.69634 3.3073 3.66328 3.3073C3.63022 3.3073 3.59849 3.32035 3.575 3.34361L3.08906 3.82955C3.0658 3.85304 3.05275 3.88477 3.05275 3.91783C3.05275 3.95089 3.0658 3.98262 3.08906 4.00611L3.97344 4.89048C4.02187 4.93892 4.10156 4.93892 4.15 4.89048L4.63594 4.40455C4.68438 4.35611 4.68438 4.27642 4.63594 4.22798L3.75156 3.34361ZM3.09375 6.7858H1.84375C1.775 6.7858 1.71875 6.84205 1.71875 6.9108V7.5983C1.71875 7.66705 1.775 7.7233 1.84375 7.7233H3.09375C3.1625 7.7233 3.21875 7.66705 3.21875 7.5983V6.9108C3.21875 6.84205 3.1625 6.7858 3.09375 6.7858Z" fill="black" fill-opacity="0.85"/>
</svg>
