<svg width="14" height="14" viewBox="0 0 14 14" fill="none" xmlns="http://www.w3.org/2000/svg">
<g clip-path="url(#clip0_1_6130)">
<path d="M11.714 1H2.78542C2.53849 1 2.33899 1.1995 2.33899 1.44643V13.0536C2.33899 13.3005 2.53849 13.5 2.78542 13.5H11.714C11.9609 13.5 12.1604 13.3005 12.1604 13.0536V1.44643C12.1604 1.1995 11.9609 1 11.714 1ZM3.34345 2.00446H11.156V4.90625H3.34345V2.00446ZM11.156 8.70089H3.34345V5.79911H11.156V8.70089ZM11.156 12.4955H3.34345V9.59375H11.156V12.4955ZM4.34792 3.45536C4.34792 3.60336 4.40671 3.7453 4.51136 3.84995C4.61601 3.9546 4.75795 4.01339 4.90595 4.01339C5.05395 4.01339 5.19589 3.9546 5.30054 3.84995C5.4052 3.7453 5.46399 3.60336 5.46399 3.45536C5.46399 3.30736 5.4052 3.16542 5.30054 3.06077C5.19589 2.95611 5.05395 2.89732 4.90595 2.89732C4.75795 2.89732 4.61601 2.95611 4.51136 3.06077C4.40671 3.16542 4.34792 3.30736 4.34792 3.45536ZM4.34792 7.25C4.34792 7.398 4.40671 7.53994 4.51136 7.64459C4.61601 7.74924 4.75795 7.80804 4.90595 7.80804C5.05395 7.80804 5.19589 7.74924 5.30054 7.64459C5.4052 7.53994 5.46399 7.398 5.46399 7.25C5.46399 7.102 5.4052 6.96006 5.30054 6.85541C5.19589 6.75076 5.05395 6.69196 4.90595 6.69196C4.75795 6.69196 4.61601 6.75076 4.51136 6.85541C4.40671 6.96006 4.34792 7.102 4.34792 7.25ZM4.34792 11.0446C4.34792 11.1926 4.40671 11.3346 4.51136 11.4392C4.61601 11.5439 4.75795 11.6027 4.90595 11.6027C5.05395 11.6027 5.19589 11.5439 5.30054 11.4392C5.4052 11.3346 5.46399 11.1926 5.46399 11.0446C5.46399 10.8966 5.4052 10.7547 5.30054 10.6501C5.19589 10.5454 5.05395 10.4866 4.90595 10.4866C4.75795 10.4866 4.61601 10.5454 4.51136 10.6501C4.40671 10.7547 4.34792 10.8966 4.34792 11.0446Z" fill="black" fill-opacity="0.85"/>
</g>
<defs>
<clipPath id="clip0_1_6130">
<rect width="12.5" height="12.5" fill="white" transform="translate(1 1)"/>
</clipPath>
</defs>
</svg>
