<svg width="38" height="48" viewBox="0 0 38 48" fill="none" xmlns="http://www.w3.org/2000/svg">
<g clip-path="url(#clip0_1_4793)">
<path d="M18.999 17.875C15.6166 17.875 12.874 20.6176 12.874 24C12.874 27.3824 15.6166 30.125 18.999 30.125C22.3814 30.125 25.124 27.3824 25.124 24C25.124 20.6176 22.3814 17.875 18.999 17.875ZM18.999 29.0859C16.1908 29.0859 13.9131 26.8082 13.9131 24C13.9131 21.1918 16.1908 18.9141 18.999 18.9141C21.8072 18.9141 24.085 21.1918 24.085 24C24.085 26.8082 21.8072 29.0859 18.999 29.0859Z" fill="white"/>
<path d="M20.5246 21.3295C20.1144 20.9699 19.573 20.773 18.9988 20.773C18.4246 20.773 17.8832 20.9713 17.473 21.3295C17.0465 21.7027 16.8113 22.2045 16.8113 22.7418V22.8457C16.8113 22.9058 16.8605 22.955 16.9207 22.955H17.5769C17.6371 22.955 17.6863 22.9058 17.6863 22.8457V22.7418C17.6863 22.1388 18.2756 21.648 18.9988 21.648C19.7221 21.648 20.3113 22.1388 20.3113 22.7418C20.3113 23.167 20.0105 23.5566 19.5443 23.7357C19.2545 23.8464 19.0084 24.0406 18.832 24.2949C18.6529 24.5547 18.5599 24.8664 18.5599 25.1822V25.4761C18.5599 25.5363 18.6092 25.5855 18.6693 25.5855H19.3256C19.3857 25.5855 19.4349 25.5363 19.4349 25.4761V25.1658C19.4357 25.0331 19.4763 24.9036 19.5517 24.7944C19.6271 24.6851 19.7336 24.6011 19.8574 24.5533C20.664 24.2429 21.1849 23.532 21.1849 22.7418C21.1863 22.2045 20.9512 21.7027 20.5246 21.3295ZM18.4519 27.0074C18.4519 27.1524 18.5096 27.2915 18.6121 27.3941C18.7147 27.4966 18.8538 27.5543 18.9988 27.5543C19.1439 27.5543 19.283 27.4966 19.3855 27.3941C19.4881 27.2915 19.5457 27.1524 19.5457 27.0074C19.5457 26.8623 19.4881 26.7232 19.3855 26.6207C19.283 26.5181 19.1439 26.4605 18.9988 26.4605C18.8538 26.4605 18.7147 26.5181 18.6121 26.6207C18.5096 26.7232 18.4519 26.8623 18.4519 27.0074Z" fill="white"/>
</g>
<defs>
<clipPath id="clip0_1_4793">
<rect width="14" height="14" fill="white" transform="translate(11.999 17)"/>
</clipPath>
</defs>
</svg>
