<svg width="38" height="48" viewBox="0 0 38 48" fill="none" xmlns="http://www.w3.org/2000/svg">
<g clip-path="url(#clip0_1_4788)">
<path d="M25.2118 29.3535L21.154 25.2956C21.7836 24.4816 22.1243 23.4863 22.1243 22.4394C22.1243 21.1863 21.6352 20.0113 20.7508 19.1253C19.8665 18.2394 18.6883 17.7519 17.4368 17.7519C16.1852 17.7519 15.0071 18.241 14.1227 19.1253C13.2368 20.0097 12.7493 21.1863 12.7493 22.4394C12.7493 23.691 13.2383 24.8691 14.1227 25.7535C15.0071 26.6394 16.1836 27.1269 17.4368 27.1269C18.4836 27.1269 19.4774 26.7863 20.2915 26.1581L24.3493 30.2144C24.3612 30.2263 24.3753 30.2357 24.3908 30.2422C24.4064 30.2486 24.4231 30.2519 24.4399 30.2519C24.4567 30.2519 24.4734 30.2486 24.4889 30.2422C24.5045 30.2357 24.5186 30.2263 24.5305 30.2144L25.2118 29.5347C25.2237 29.5228 25.2331 29.5087 25.2396 29.4931C25.246 29.4776 25.2493 29.4609 25.2493 29.4441C25.2493 29.4272 25.246 29.4106 25.2396 29.395C25.2331 29.3795 25.2237 29.3654 25.2118 29.3535ZM19.9118 24.9144C19.2493 25.5753 18.3711 25.9394 17.4368 25.9394C16.5024 25.9394 15.6243 25.5753 14.9618 24.9144C14.3008 24.2519 13.9368 23.3738 13.9368 22.4394C13.9368 21.505 14.3008 20.6253 14.9618 19.9644C15.6243 19.3035 16.5024 18.9394 17.4368 18.9394C18.3711 18.9394 19.2508 19.3019 19.9118 19.9644C20.5727 20.6269 20.9368 21.505 20.9368 22.4394C20.9368 23.3738 20.5727 24.2535 19.9118 24.9144Z" fill="white"/>
</g>
<defs>
<clipPath id="clip0_1_4788">
<rect width="14" height="14" fill="white" transform="translate(11.999 17)"/>
</clipPath>
</defs>
</svg>
